<svg width="234" height="155" viewBox="0 0 234 155" fill="none" xmlns="http://www.w3.org/2000/svg">
<path d="M152.72 67.6588C152.451 69.0751 152.127 70.4771 151.75 71.8645C151.709 72.0257 151.664 72.1844 151.618 72.3455H146.372C145.925 72.346 145.497 72.5235 145.181 72.839C144.865 73.1546 144.688 73.5825 144.687 74.0287V88.9665C144.528 89.2623 144.367 89.5556 144.206 89.849C143.373 91.364 142.506 92.8621 141.62 94.3409C127.174 118.377 107.026 138.491 82.9551 152.906L84.3803 149.694C83.8578 149.658 83.3331 149.622 82.8107 149.586C71.4359 148.809 60.0226 147.948 48.915 145.394C37.2947 142.723 25.9272 138.089 16.8201 130.406C7.71054 122.721 1.03258 111.746 0.105722 99.8717C-0.203336 95.7908 0.20985 91.6874 1.32633 87.7498C3.46157 80.1703 8.12713 73.3506 14.8581 69.3156C25.4312 62.9793 39.223 64.2706 50.3691 69.5417C61.5127 74.8103 70.5837 83.532 79.4404 92.1022C70.4983 76.7852 58.0479 63.8041 43.1109 54.2239C38.1613 51.0594 32.9085 48.2411 28.7004 44.1412C24.4947 40.0437 21.3916 34.2989 22.1356 28.4772C22.9805 21.874 28.3947 16.8627 33.8184 12.9984C35.9851 11.4546 38.2215 9.9902 40.5278 8.64359C47.0348 4.83461 54.074 1.96104 61.5079 0.895773C71.5779 -0.549429 82.4544 1.64362 90.1748 8.26125C98.8726 15.7181 102.44 27.7438 102.101 39.2477C107.46 31.4662 115.724 25.5099 125.057 25.2574C134.747 24.9977 143.958 31.1127 148.811 39.4954C153.662 47.8756 154.533 58.1484 152.72 67.6588Z" fill="#E6E6E6"/>
<path d="M91.4149 99.9762C97.0901 99.477 102.333 98.8937 107.832 97.3393C113.163 95.8326 118.292 93.3103 122.087 89.1918C126.169 84.762 128.372 79.0091 129.927 73.2823C130.793 70.0894 131.506 66.8518 132.178 63.6131C132.907 60.0992 133.554 56.5697 134.121 53.0246C135.249 45.9681 136.054 38.8701 136.536 31.7304C136.595 30.8638 136.648 29.9969 136.697 29.1296C136.727 28.5946 135.894 28.5963 135.864 29.1296C135.467 36.1672 134.754 43.1774 133.725 50.1602C132.709 57.0207 131.409 63.8515 129.759 70.589C128.362 76.2968 126.553 82.0936 122.969 86.8451C119.608 91.3008 114.755 94.2125 109.514 95.9534C104.181 97.7248 98.5578 98.4321 92.985 98.958C92.3013 99.0225 92.0989 99.084 91.4148 99.1442C90.885 99.1908 90.8801 100.023 91.4148 99.9762L91.4149 99.9762Z" fill="white"/>
<path d="M1.80686 88.3635C8.96724 88.7602 16.0548 90.0078 22.9196 92.0797C29.7874 94.1475 36.3871 97.0169 42.5821 100.629C48.568 104.121 54.1249 108.301 59.1399 113.082C64.007 117.724 68.3448 122.89 72.074 128.486C75.8201 134.096 78.9247 140.108 81.3294 146.409C81.6227 147.18 81.9051 147.955 82.1768 148.734C82.3523 149.237 83.1573 149.021 82.98 148.513C80.7302 142.079 77.7643 135.918 74.1381 130.145C70.5126 124.371 66.2577 119.017 61.4512 114.18C56.5678 109.268 51.1328 104.935 45.2544 101.269C32.9116 93.5886 18.9211 88.9427 4.43172 87.7121C3.5577 87.6389 2.68275 87.5787 1.80687 87.5315C1.27124 87.5022 1.27288 88.3344 1.80687 88.3635L1.80686 88.3635Z" fill="white"/>
<path d="M40.7526 9.61896C45.3308 11.0734 49.6704 13.1916 53.6323 15.9058C57.6807 18.6981 61.373 21.9734 64.6272 25.6591C68.0565 29.5363 71.1054 33.7333 73.7318 38.1924C76.5176 42.9007 78.9377 47.8154 80.9708 52.8935C83.0642 58.1069 84.825 63.4475 86.2425 68.8833C87.6834 74.3835 88.8088 79.9614 89.6134 85.5897C90.4139 91.1583 90.8984 96.7676 91.0644 102.391C91.2318 107.768 91.0727 113.15 90.5879 118.508C90.1446 123.507 89.3349 128.466 88.1654 133.346C87.1268 137.754 85.6631 142.051 83.7948 146.177C83.362 147.113 82.9029 148.036 82.4173 148.947C82.1653 149.419 82.8841 149.84 83.1365 149.367C85.2011 145.426 86.8497 141.282 88.0557 137C89.4088 132.234 90.3895 127.37 90.9892 122.452C91.654 117.116 91.9777 111.744 91.9585 106.367C91.9465 100.719 91.6099 95.0754 90.9503 89.4654C90.2904 83.7853 89.3106 78.1469 88.0157 72.577C86.7239 66.9979 85.0853 61.5047 83.1093 56.1293C81.2048 50.9255 78.9245 45.8668 76.2864 40.9931C73.7738 36.3423 70.8457 31.9277 67.5377 27.8033C64.3962 23.8762 60.8097 20.326 56.8499 17.2237C53.0316 14.2412 48.8123 11.8101 44.3159 10.0018C43.2171 9.565 42.1032 9.16993 40.974 8.81664C40.4615 8.65557 40.2422 9.45856 40.7526 9.61896H40.7526Z" fill="white"/>
<path d="M90.1603 154.344C123.067 154.344 149.743 153.268 149.743 151.94C149.743 150.612 123.067 149.535 90.1603 149.535C57.254 149.535 30.5781 150.612 30.5781 151.94C30.5781 153.268 57.254 154.344 90.1603 154.344Z" fill="#E6E6E6"/>
<path d="M142.802 76.6231C142.772 76.7528 142.753 76.8847 142.744 77.0175L132.403 82.9767L129.889 81.5313L127.209 85.0354L132.587 88.8638L144.385 79.5667C144.866 79.7445 145.39 79.7719 145.887 79.645C146.384 79.5182 146.831 79.2431 147.168 78.8565C147.505 78.4699 147.716 77.9901 147.773 77.4807C147.83 76.9714 147.73 76.4568 147.488 76.0053C147.245 75.5538 146.87 75.1869 146.413 74.9533C145.957 74.7196 145.44 74.6304 144.931 74.6975C144.422 74.7645 143.946 74.9847 143.566 75.3287C143.186 75.6726 142.919 76.1241 142.802 76.6231Z" fill="#FFB8B8"/>
<path d="M119.25 80.2794L127.392 86.0764L131.034 81.5155L123.119 75.1713C122.778 74.8984 122.386 74.6978 121.965 74.5818C121.544 74.4657 121.104 74.4368 120.671 74.4966C120.239 74.5565 119.823 74.7039 119.45 74.9299C119.076 75.1558 118.753 75.4556 118.499 75.8107C118.006 76.5027 117.807 77.3623 117.948 78.2003C118.089 79.0384 118.557 79.7862 119.25 80.2794Z" fill="#6C63FF"/>
<path d="M102.441 146.424L105.297 147.171L109.541 136.527L105.327 135.424L102.441 146.424Z" fill="#FFB8B8"/>
<path d="M110.108 151.26L101.135 148.912L102.043 145.449L107.55 146.89C108.469 147.131 109.255 147.726 109.735 148.546C110.215 149.365 110.349 150.342 110.108 151.26Z" fill="#2F2E41"/>
<path d="M127.821 148.454L130.726 147.936L130.107 136.495L125.819 137.26L127.821 148.454Z" fill="#FFB8B8"/>
<path d="M136.811 149.631L127.68 151.261L127.05 147.737L132.653 146.737C133.116 146.654 133.591 146.663 134.051 146.764C134.511 146.865 134.946 147.055 135.332 147.324C135.718 147.593 136.048 147.935 136.301 148.331C136.555 148.727 136.728 149.169 136.811 149.631Z" fill="#2F2E41"/>
<path d="M122.1 64.3172C122.816 64.4913 123.398 65.22 123.748 66.0642C124.07 66.9509 124.289 67.872 124.399 68.809C124.674 70.554 124.938 72.4431 124.369 74.0593C123.703 75.9535 121.928 76.9456 120.388 76.4794C118.848 76.0132 117.623 74.2631 117.204 72.2486C116.824 70.2131 117.069 68.1101 117.908 66.2167C118.346 65.2218 118.949 64.3041 119.75 63.8552C120.143 63.6178 120.612 63.5378 121.061 63.6314C121.511 63.725 121.909 63.9852 122.174 64.3597" fill="#2F2E41"/>
<path d="M126.151 95.9111L131.682 145.398L127.113 147.13L118.688 113.946L106.957 144.288L101.957 144.565C101.957 144.565 108.818 97.3539 113.902 96.281L126.151 95.9111Z" fill="#2F2E41"/>
<path d="M121.505 70.6325C124.77 70.6325 127.417 67.9883 127.417 64.7264C127.417 61.4646 124.77 58.8203 121.505 58.8203C118.239 58.8203 115.592 61.4646 115.592 64.7264C115.592 67.9883 118.239 70.6325 121.505 70.6325Z" fill="#FFB8B8"/>
<path d="M124.042 73.1103L117.652 72.2778C117.652 72.2778 113.485 77.2727 113.763 85.8751C114.041 94.4775 113.068 97.1137 113.068 97.1137L126.391 97.3541C124.465 94.709 132.52 79.517 124.042 73.1103Z" fill="#6C63FF"/>
<path d="M127.474 98.5562C127.341 98.5571 127.208 98.5686 127.077 98.5904L118.903 89.8985L119.736 87.1235L115.708 85.3198L113.208 91.4247L124.968 100.769C124.905 101.278 124.998 101.793 125.235 102.248C125.473 102.702 125.843 103.074 126.297 103.313C126.751 103.552 127.267 103.647 127.776 103.586C128.286 103.525 128.764 103.311 129.149 102.971C129.533 102.632 129.805 102.183 129.928 101.686C130.051 101.188 130.02 100.665 129.838 100.186C129.657 99.7067 129.333 99.294 128.911 99.0029C128.488 98.7118 127.988 98.556 127.474 98.5562Z" fill="#FFB8B8"/>
<path d="M118.521 76.4918L114.735 85.7362L120.014 88.2336L124.385 79.085C124.573 78.6914 124.679 78.2636 124.695 77.8278C124.712 77.392 124.64 76.9574 124.482 76.5506C124.325 76.1438 124.086 75.7733 123.781 75.4619C123.475 75.1505 123.109 74.9047 122.705 74.7395C122.315 74.5802 121.897 74.4992 121.476 74.501C121.055 74.5028 120.638 74.5875 120.25 74.7503C119.861 74.913 119.509 75.1505 119.212 75.4493C118.916 75.7482 118.681 76.1024 118.521 76.4918Z" fill="#6C63FF"/>
<path d="M119.958 70.0956C120.884 69.5617 120.983 68.2739 120.857 67.213C120.731 66.152 120.521 64.9693 121.145 64.1018C121.89 63.0665 123.387 63.0459 124.663 63.0121C125.939 62.9783 127.493 62.6051 127.824 61.3735C128.043 60.5597 127.575 59.6864 126.904 59.1756C126.234 58.6647 125.394 58.4389 124.579 58.2243C122.754 57.7441 120.87 57.2599 119.002 57.5238C117.151 57.7852 115.478 58.7639 114.345 60.2481C113.211 61.7322 112.708 63.6026 112.944 65.4544C113.247 67.8233 113.685 68.8577 113.397 69.9021C112.861 71.8476 110.549 73.0973 110.503 75.1146C110.467 76.6925 111.862 77.9098 113.224 78.711C114.304 79.3466 115.469 79.8858 116.714 80.0346C117.958 80.1834 119.298 79.8985 120.225 79.056C121.421 77.9693 121.716 76.1539 121.373 74.5759C121.031 72.9979 120.151 71.5966 119.281 70.2357" fill="#2F2E41"/>
<path d="M231.834 71.8647H146.372C145.798 71.8656 145.247 72.0939 144.841 72.4996C144.435 72.9053 144.206 73.4552 144.206 74.0289V128.855C144.206 129.429 144.435 129.979 144.841 130.385C145.247 130.79 145.798 131.019 146.372 131.019H231.834C232.408 131.019 232.958 130.79 233.365 130.385C233.771 129.979 233.999 129.429 234 128.855V74.0289C233.999 73.4552 233.771 72.9053 233.365 72.4996C232.958 72.0939 232.408 71.8656 231.834 71.8647ZM233.519 128.855C233.518 129.302 233.341 129.729 233.025 130.045C232.709 130.361 232.28 130.538 231.834 130.538H146.372C145.925 130.538 145.497 130.361 145.181 130.045C144.865 129.729 144.688 129.302 144.687 128.855V74.0289C144.688 73.5827 144.865 73.1548 145.181 72.8392C145.497 72.5237 145.925 72.3462 146.372 72.3457H231.834C232.28 72.3462 232.709 72.5237 233.025 72.8392C233.341 73.1548 233.518 73.5827 233.519 74.0289V128.855Z" fill="#3F3D56"/>
<path d="M164.614 99.1566H151.133C150.59 99.1559 150.07 98.9404 149.686 98.5572C149.303 98.174 149.087 97.6545 149.086 97.1126V83.6465C149.087 83.1046 149.303 82.5851 149.686 82.2019C150.07 81.8187 150.59 81.6032 151.133 81.6025H164.614C165.156 81.6032 165.677 81.8187 166.06 82.2019C166.444 82.5851 166.66 83.1046 166.66 83.6465V97.1126C166.66 97.6545 166.444 98.174 166.06 98.5572C165.677 98.9404 165.156 99.1559 164.614 99.1566Z" fill="#6C63FF"/>
<path d="M227.383 113.466H150.828C150.413 113.466 150.015 113.302 149.722 113.009C149.429 112.715 149.264 112.318 149.264 111.903C149.264 111.489 149.429 111.091 149.722 110.798C150.015 110.505 150.413 110.34 150.828 110.34H227.383C227.798 110.34 228.196 110.505 228.489 110.798C228.783 111.091 228.947 111.489 228.947 111.903C228.947 112.318 228.783 112.715 228.489 113.009C228.196 113.302 227.798 113.466 227.383 113.466Z" fill="#CCCCCC"/>
<path d="M227.434 105.892H150.88C150.465 105.892 150.067 105.727 149.773 105.434C149.48 105.141 149.315 104.743 149.315 104.329C149.315 103.914 149.48 103.517 149.773 103.223C150.067 102.93 150.465 102.766 150.88 102.766H227.434C227.849 102.766 228.247 102.93 228.54 103.223C228.834 103.517 228.999 103.914 228.999 104.329C228.999 104.743 228.834 105.141 228.54 105.434C228.247 105.727 227.849 105.892 227.434 105.892Z" fill="#CCCCCC"/>
<path d="M189.638 95.5494H178.324C177.909 95.5494 177.511 95.3847 177.217 95.0916C176.924 94.7985 176.759 94.4009 176.759 93.9864C176.759 93.5718 176.924 93.1743 177.217 92.8811C177.511 92.588 177.909 92.4233 178.324 92.4233H189.638C190.053 92.4233 190.451 92.588 190.745 92.8811C191.038 93.1743 191.203 93.5718 191.203 93.9864C191.203 94.4009 191.038 94.7985 190.745 95.0916C190.451 95.3847 190.053 95.5494 189.638 95.5494Z" fill="#CCCCCC"/>
<path d="M227.434 87.857H178.324C177.909 87.857 177.511 87.6923 177.217 87.3992C176.924 87.1061 176.759 86.7085 176.759 86.294C176.759 85.8794 176.924 85.4819 177.217 85.1888C177.511 84.8956 177.909 84.731 178.324 84.731H227.434C227.849 84.731 228.247 84.8956 228.54 85.1888C228.834 85.4819 228.999 85.8794 228.999 86.294C228.999 86.7085 228.834 87.1061 228.54 87.3992C228.247 87.6923 227.849 87.857 227.434 87.857Z" fill="#CCCCCC"/>
<path d="M187.712 121.161H150.828C150.413 121.161 150.015 120.997 149.722 120.703C149.429 120.41 149.264 120.013 149.264 119.598C149.264 119.184 149.429 118.786 149.722 118.493C150.015 118.2 150.413 118.035 150.828 118.035H187.712C188.127 118.035 188.526 118.2 188.819 118.493C189.112 118.786 189.277 119.184 189.277 119.598C189.277 120.013 189.112 120.41 188.819 120.703C188.526 120.997 188.127 121.161 187.712 121.161Z" fill="#CCCCCC"/>
</svg>
