<svg width="77" height="77" viewBox="0 0 77 77" fill="none" xmlns="http://www.w3.org/2000/svg">
<circle cx="2.16343" cy="74.5221" r="1.66343" transform="rotate(-90 2.16343 74.5221)" fill="#D9186C"/>
<circle cx="2.16343" cy="30.9401" r="1.66343" transform="rotate(-90 2.16343 30.9401)" fill="#D9186C"/>
<circle cx="16.8016" cy="74.5221" r="1.66343" transform="rotate(-90 16.8016 74.5221)" fill="#D9186C"/>
<circle cx="16.8016" cy="30.9401" r="1.66343" transform="rotate(-90 16.8016 30.9401)" fill="#D9186C"/>
<circle cx="31.4398" cy="74.5221" r="1.66343" transform="rotate(-90 31.4398 74.5221)" fill="#D9186C"/>
<circle cx="46.078" cy="74.5221" r="1.66343" transform="rotate(-90 46.078 74.5221)" fill="#D9186C"/>
<circle cx="60.7162" cy="74.5216" r="1.66343" transform="rotate(-90 60.7162 74.5216)" fill="#D9186C"/>
<circle cx="75.1634" cy="74.5216" r="1.66343" transform="rotate(-90 75.1634 74.5216)" fill="#D9186C"/>
<circle cx="2.16343" cy="59.8839" r="1.66343" transform="rotate(-90 2.16343 59.8839)" fill="#D9186C"/>
<circle cx="2.16343" cy="16.3019" r="1.66343" transform="rotate(-90 2.16343 16.3019)" fill="#D9186C"/>
<circle cx="16.8016" cy="59.8839" r="1.66343" transform="rotate(-90 16.8016 59.8839)" fill="#D9186C"/>
<circle cx="16.8016" cy="16.3019" r="1.66343" transform="rotate(-90 16.8016 16.3019)" fill="#D9186C"/>
<circle cx="31.4398" cy="59.8839" r="1.66343" transform="rotate(-90 31.4398 59.8839)" fill="#D9186C"/>
<circle cx="46.078" cy="59.8839" r="1.66343" transform="rotate(-90 46.078 59.8839)" fill="#D9186C"/>
<circle cx="60.7162" cy="59.8839" r="1.66343" transform="rotate(-90 60.7162 59.8839)" fill="#D9186C"/>
<circle cx="75.1634" cy="59.8839" r="1.66343" transform="rotate(-90 75.1634 59.8839)" fill="#D9186C"/>
<circle cx="2.16343" cy="45.2457" r="1.66343" transform="rotate(-90 2.16343 45.2457)" fill="#D9186C"/>
<circle cx="2.16343" cy="1.66323" r="1.66343" transform="rotate(-90 2.16343 1.66323)" fill="#D9186C"/>
<circle cx="16.8016" cy="45.2457" r="1.66343" transform="rotate(-90 16.8016 45.2457)" fill="#D9186C"/>
<circle cx="16.8016" cy="1.66323" r="1.66343" transform="rotate(-90 16.8016 1.66323)" fill="#D9186C"/>
</svg>
