<svg width="77" height="87" viewBox="0 0 77 87" fill="none" xmlns="http://www.w3.org/2000/svg">
<path d="M72 49.615V52.73C72 65.19 68.885 68.27 56.46 68.27H17.54C5.115 68.27 2 65.155 2 52.73V30.54C2 18.115 5.115 15 17.54 15H23" stroke="white" strokeWidth="3" strokeLinecap="round" strokeLinejoin="round"/>
<path d="M37 68.2698V84.9998" stroke="white" strokeWidth="3" strokeLinecap="round" strokeLinejoin="round"/>
<path d="M2 53.5H72" stroke="white" strokeWidth="3" strokeLinecap="round" strokeLinejoin="round"/>
<path d="M21.25 85H52.75" stroke="white" strokeWidth="3" strokeLinecap="round" strokeLinejoin="round"/>
<path d="M56 0C44.408 0 35 9.408 35 21C35 32.592 44.408 42 56 42C67.592 42 77 32.592 77 21C77 9.408 67.592 0 56 0ZM61.586 24.633L58.898 26.187L56.21 27.741C52.745 29.736 49.91 28.098 49.91 24.108V21V17.892C49.91 13.881 52.745 12.264 56.21 14.259L58.898 15.813L61.586 17.367C65.051 19.362 65.051 22.638 61.586 24.633Z" fill="white"/>
</svg>
