<svg width="90" height="87" viewBox="0 0 90 87" fill="none" xmlns="http://www.w3.org/2000/svg">
<path d="M15.9998 65.31C20.5037 65.31 24.1549 61.6588 24.1549 57.1549C24.1549 52.651 20.5037 49 15.9998 49C11.4959 49 7.84473 52.651 7.84473 57.1549C7.84473 61.6588 11.4959 65.31 15.9998 65.31Z" stroke="white" strokeWidth="2.5" strokeLinecap="round" strokeLinejoin="round"/>
<path d="M30.0001 85.1203C30.0001 78.8203 23.7351 73.7104 16 73.7104C8.26502 73.7104 2 78.8203 2 85.1203" stroke="white" strokeWidth="2.5" strokeLinecap="round" strokeLinejoin="round"/>
<path d="M73.9998 65.31C78.5037 65.31 82.1549 61.6588 82.1549 57.1549C82.1549 52.651 78.5037 49 73.9998 49C69.4959 49 65.8447 52.651 65.8447 57.1549C65.8447 61.6588 69.4959 65.31 73.9998 65.31Z" stroke="white" strokeWidth="2.5" strokeLinecap="round" strokeLinejoin="round"/>
<path d="M88.0001 85.1203C88.0001 78.8203 81.7351 73.7104 74 73.7104C66.265 73.7104 60 78.8203 60 85.1203" stroke="white" strokeWidth="2.5" strokeLinecap="round" strokeLinejoin="round"/>
<path d="M59.195 21.3147V30.1195C59.195 30.6918 59.173 31.2421 59.107 31.7703C58.6007 37.7136 55.1008 40.6631 48.6513 40.6631H47.7709C47.2206 40.6631 46.6922 40.9273 46.3621 41.3675L43.7207 44.8894C42.554 46.4523 40.661 46.4523 39.4944 44.8894L36.8529 41.3675C36.5668 40.9933 35.9285 40.6631 35.4442 40.6631H34.5637C27.5419 40.6631 24.02 38.9242 24.02 30.1195V21.3147C24.02 14.8652 26.9916 11.3653 32.9128 10.8591C33.4411 10.793 33.9914 10.771 34.5637 10.771H48.6513C55.6731 10.771 59.195 14.2929 59.195 21.3147Z" stroke="white" strokeWidth="3" strokeMiterlimit="10" strokeLinecap="round" strokeLinejoin="round"/>
<path d="M68 12.613V21.4756C68 27.9897 65.0357 31.4904 59.1292 32C59.1951 31.4682 59.2171 30.9143 59.2171 30.3383V21.4756C59.2171 14.4077 55.7039 10.8626 48.6995 10.8626H34.6468C34.0759 10.8626 33.527 10.8848 33 10.9513C33.505 4.99115 36.9962 2 43.4297 2H57.4824C64.4868 2 68 5.54507 68 12.613Z" stroke="white" strokeWidth="3" strokeMiterlimit="10" strokeLinecap="round" strokeLinejoin="round"/>
<path d="M48.991 26H49.009" stroke="white" strokeWidth="3" strokeLinecap="round" strokeLinejoin="round"/>
<path d="M41.991 26H42.009" stroke="white" strokeWidth="3" strokeLinecap="round" strokeLinejoin="round"/>
<path d="M33.991 26H34.009" stroke="white" strokeWidth="3" strokeLinecap="round" strokeLinejoin="round"/>
</svg>
