<svg width="42" height="42" viewBox="0 0 42 42" fill="none" xmlns="http://www.w3.org/2000/svg">
<rect width="42" height="42" rx="8" fill="#F2EFFC"/>
<path d="M25.9069 10H17.1035C13.2796 10 11 12.2785 11 16.1005V24.889C11 28.7215 13.2796 31 17.1035 31H25.8964C29.7203 31 32 28.7215 32 24.8995V16.1005C32.0105 12.2785 29.7308 10 25.9069 10ZM16.9144 26.9575C16.9144 27.388 16.5573 27.745 16.1266 27.745C15.6958 27.745 15.3387 27.388 15.3387 26.9575V24.784C15.3387 24.3535 15.6958 23.9965 16.1266 23.9965C16.5573 23.9965 16.9144 24.3535 16.9144 24.784V26.9575ZM22.2931 26.9575C22.2931 27.388 21.936 27.745 21.5052 27.745C21.0745 27.745 20.7173 27.388 20.7173 26.9575V22.6C20.7173 22.1695 21.0745 21.8125 21.5052 21.8125C21.936 21.8125 22.2931 22.1695 22.2931 22.6V26.9575ZM27.6718 26.9575C27.6718 27.388 27.3146 27.745 26.8839 27.745C26.4532 27.745 26.096 27.388 26.096 26.9575V20.4265C26.096 19.996 26.4532 19.639 26.8839 19.639C27.3146 19.639 27.6718 19.996 27.6718 20.4265V26.9575ZM27.6718 17.1085C27.6718 17.539 27.3146 17.896 26.8839 17.896C26.4532 17.896 26.096 17.539 26.096 17.1085V16.09C23.4172 18.841 20.066 20.7835 16.3156 21.718C16.2526 21.739 16.1896 21.739 16.1266 21.739C15.7694 21.739 15.4542 21.4975 15.3597 21.1405C15.2546 20.7205 15.5067 20.29 15.9375 20.185C19.4777 19.303 22.6293 17.4445 25.1295 14.8195H23.8164C23.3857 14.8195 23.0285 14.4625 23.0285 14.032C23.0285 13.6015 23.3857 13.2445 23.8164 13.2445H26.8944C26.9364 13.2445 26.968 13.2655 27.01 13.2655C27.0625 13.276 27.115 13.276 27.1676 13.297C27.2201 13.318 27.2621 13.3495 27.3146 13.381C27.3461 13.402 27.3777 13.4125 27.4092 13.4335C27.4197 13.444 27.4197 13.4545 27.4302 13.4545C27.4722 13.4965 27.5037 13.5385 27.5352 13.5805C27.5668 13.6225 27.5983 13.654 27.6088 13.696C27.6298 13.738 27.6298 13.78 27.6403 13.8325C27.6508 13.885 27.6718 13.9375 27.6718 14.0005C27.6718 14.011 27.6823 14.0215 27.6823 14.032V17.1085H27.6718Z" fill="#6C63FF"/>
</svg>
