<svg width="15" height="15" viewBox="0 0 15 15" fill="none" xmlns="http://www.w3.org/2000/svg">
<path d="M7.56938 10.4161C9.02158 10.4161 10.1988 9.24247 10.1988 7.79472C10.1988 6.34697 9.02158 5.17334 7.56938 5.17334C6.11718 5.17334 4.93994 6.34697 4.93994 7.79472C4.93994 9.24247 6.11718 10.4161 7.56938 10.4161Z" fill="#637381"/>
<path d="M10.4252 0.789551H4.66769C2.37827 0.789551 0.519531 2.6426 0.519531 4.92501V10.6197C0.519531 12.9473 2.37827 14.8004 4.66769 14.8004H10.3799C12.7147 14.8004 14.5734 12.9473 14.5734 10.6649V4.92501C14.5734 2.6426 12.7147 0.789551 10.4252 0.789551ZM7.56913 11.2299C5.64239 11.2299 4.12367 9.67061 4.12367 7.79497C4.12367 5.91932 5.66506 4.36005 7.56913 4.36005C9.45054 4.36005 10.9919 5.91932 10.9919 7.79497C10.9919 9.67061 9.47321 11.2299 7.56913 11.2299ZM12.3293 4.67643C12.1026 4.92501 11.7626 5.0606 11.3773 5.0606C11.0373 5.0606 10.6973 4.92501 10.4252 4.67643C10.1759 4.42785 10.0399 4.11147 10.0399 3.72731C10.0399 3.34314 10.1759 3.04936 10.4252 2.77819C10.6746 2.50701 10.9919 2.37142 11.3773 2.37142C11.7173 2.37142 12.08 2.50701 12.3293 2.75559C12.556 3.04936 12.7147 3.38833 12.7147 3.7499C12.692 4.11147 12.556 4.42785 12.3293 4.67643Z" fill="#637381"/>
<path d="M11.4005 3.18506C11.1058 3.18506 10.8564 3.43364 10.8564 3.72741C10.8564 4.02119 11.1058 4.26977 11.4005 4.26977C11.6951 4.26977 11.9445 4.02119 11.9445 3.72741C11.9445 3.43364 11.7178 3.18506 11.4005 3.18506Z" fill="#637381"/>
</svg>
