<svg width="15" height="15" viewBox="0 0 15 15" fill="none" xmlns="http://www.w3.org/2000/svg">
<path d="M14.0039 0.789551H1.78547C1.20804 0.789551 0.746094 1.24795 0.746094 1.82096V13.9687C0.746094 14.5188 1.20804 15.0001 1.78547 15.0001H13.9577C14.5351 15.0001 14.9971 14.5417 14.9971 13.9687V1.79804C15.0433 1.24795 14.5813 0.789551 14.0039 0.789551ZM4.97289 12.8685H2.87104V6.10704H4.97289V12.8685ZM3.91041 5.16731C3.2175 5.16731 2.68626 4.61723 2.68626 3.95254C2.68626 3.28785 3.24059 2.73777 3.91041 2.73777C4.58023 2.73777 5.13457 3.28785 5.13457 3.95254C5.13457 4.61723 4.62643 5.16731 3.91041 5.16731ZM12.9414 12.8685H10.8396V9.59091C10.8396 8.81162 10.8165 7.78021 9.73091 7.78021C8.62225 7.78021 8.46057 8.65118 8.46057 9.52215V12.8685H6.35872V6.10704H8.41437V7.04677H8.43747C8.73773 6.49668 9.40755 5.9466 10.4469 5.9466C12.595 5.9466 12.9876 7.32181 12.9876 9.20127V12.8685H12.9414Z" fill="#637381"/>
</svg>
