<svg width="15" height="12" viewBox="0 0 15 12" fill="none" xmlns="http://www.w3.org/2000/svg">
<path d="M12.7596 2.48249L13.6333 1.44428C13.8862 1.1631 13.9551 0.946802 13.9781 0.838654C13.2884 1.22798 12.6447 1.35776 12.2308 1.35776H12.0699L11.9779 1.27124C11.4262 0.817025 10.7364 0.579102 10.0008 0.579102C8.39141 0.579102 7.12692 1.83361 7.12692 3.28278C7.12692 3.3693 7.12692 3.49907 7.14991 3.58559L7.21889 4.01818L6.73608 3.99655C3.79328 3.91003 1.37927 1.5308 0.988431 1.11984C0.344694 2.20131 0.712543 3.23952 1.10338 3.8884L1.88506 5.09965L0.643572 4.45077C0.666562 5.3592 1.03441 6.07297 1.74712 6.59208L2.36787 7.02467L1.74712 7.26259C2.13796 8.36569 3.0116 8.81991 3.65534 8.99294L4.50599 9.20924L3.70132 9.72834C2.41385 10.5935 0.804506 10.5286 0.0917969 10.4637C1.54021 11.4154 3.2645 11.6317 4.46001 11.6317C5.35665 11.6317 6.02337 11.5452 6.18431 11.4803C12.6217 10.0528 12.9206 4.64543 12.9206 3.56396V3.41255L13.0585 3.32604C13.8402 2.6339 14.1621 2.2662 14.346 2.0499C14.277 2.07153 14.185 2.11479 14.0931 2.13642L12.7596 2.48249Z" fill="#637381"/>
</svg>
