<svg width="22" height="20" viewBox="0 0 22 20" fill="none" xmlns="http://www.w3.org/2000/svg">
<path d="M20.0355 7.07084L17.2855 2.90417C17.2042 2.78074 17.0891 2.67861 16.9514 2.60776C16.8137 2.53692 16.6581 2.49979 16.4999 2.5H12.2961L11.648 1.91084C11.5629 1.83338 11.4619 1.77194 11.3507 1.73001C11.2395 1.68808 11.1203 1.6665 10.9999 1.6665C10.8795 1.6665 10.7603 1.68808 10.6491 1.73001C10.5379 1.77194 10.4369 1.83338 10.3518 1.91084L9.70375 2.5H5.49992C5.34169 2.49979 5.18611 2.53692 5.04841 2.60776C4.9107 2.67861 4.79559 2.78074 4.71434 2.90417L1.96434 7.07084C1.8793 7.20062 1.83463 7.34895 1.83509 7.5H1.83325V15.8333C1.83325 16.0544 1.92983 16.2663 2.10174 16.4226C2.27365 16.5789 2.5068 16.6667 2.74992 16.6667H19.2499C19.493 16.6667 19.7262 16.5789 19.8981 16.4226C20.07 16.2663 20.1666 16.0544 20.1666 15.8333V7.5H20.1648C20.1648 7.35167 20.1226 7.20334 20.0355 7.07084ZM18.3333 15H12.8333V11.6667H9.16659V15H3.66659V8.33334H5.87942L6.148 8.08917L7.98134 6.4225L10.9999 3.67834L14.9352 7.25584L15.8518 8.08917L16.1204 8.33334H18.3333V15Z" fill="#68777F"/>
<path d="M10.9037 10C11.9694 10 12.8333 9.21467 12.8333 8.24587C12.8333 7.27707 11.9694 6.4917 10.9037 6.4917C9.83803 6.4917 8.97412 7.27707 8.97412 8.24587C8.97412 9.21467 9.83803 10 10.9037 10Z" fill="#68777F"/>
<path d="M5.5 10H7.33333V12.5H5.5V10ZM14.6667 10H16.5V12.5H14.6667V10Z" fill="#68777F"/>
</svg>
