<svg width="19" height="19" viewBox="0 0 19 19" fill="none" xmlns="http://www.w3.org/2000/svg">
<path d="M15.1764 14.6466C15.9726 13.6887 16.5263 12.5532 16.7908 11.3361C17.0552 10.1189 17.0226 8.856 16.6958 7.65412C16.3689 6.45224 15.7574 5.34676 14.9129 4.4312C14.0685 3.51564 13.0159 2.81694 11.8443 2.3942C10.6727 1.97146 9.41654 1.83712 8.18204 2.00254C6.94754 2.16796 5.77104 2.62828 4.75207 3.34456C3.7331 4.06083 2.90163 5.01199 2.328 6.11757C1.75437 7.22315 1.45545 8.45062 1.45655 9.69616C1.45696 11.5068 2.09503 13.2595 3.25878 14.6466L3.24769 14.656C3.28649 14.7026 3.33084 14.7425 3.37076 14.7885C3.42065 14.8456 3.47442 14.8994 3.52598 14.9548C3.6812 15.1234 3.84086 15.2852 4.00827 15.4371C4.05928 15.4837 4.11194 15.5269 4.1635 15.5713C4.34089 15.7243 4.52328 15.8695 4.71231 16.0048C4.73671 16.0214 4.75888 16.043 4.78327 16.0602V16.0536C6.08165 16.9673 7.63053 17.4576 9.21817 17.4576C10.8058 17.4576 12.3547 16.9673 13.6531 16.0536V16.0602C13.6775 16.043 13.6991 16.0214 13.724 16.0048C13.9125 15.869 14.0954 15.7243 14.2728 15.5713C14.3244 15.5269 14.3771 15.4831 14.4281 15.4371C14.5955 15.2847 14.7551 15.1234 14.9104 14.9548C14.9619 14.8994 15.0151 14.8456 15.0656 14.7885C15.1049 14.7425 15.1498 14.7026 15.1886 14.6555L15.1764 14.6466ZM9.21761 5.26126C9.711 5.26126 10.1933 5.40757 10.6036 5.68168C11.0138 5.95579 11.3335 6.3454 11.5223 6.80124C11.7112 7.25707 11.7606 7.75866 11.6643 8.24257C11.5681 8.72648 11.3305 9.17098 10.9816 9.51986C10.6327 9.86874 10.1882 10.1063 9.70429 10.2026C9.22038 10.2988 8.71879 10.2494 8.26296 10.0606C7.80713 9.87181 7.41752 9.55207 7.14341 9.14183C6.86929 8.73159 6.72298 8.24928 6.72298 7.75589C6.72298 7.09427 6.98581 6.45975 7.45364 5.99192C7.92148 5.52409 8.556 5.26126 9.21761 5.26126ZM4.7866 14.6466C4.79621 13.9187 5.09202 13.2239 5.61002 12.7124C6.12803 12.2009 6.82657 11.914 7.55453 11.9136H10.8807C11.6087 11.914 12.3072 12.2009 12.8252 12.7124C13.3432 13.2239 13.639 13.9187 13.6486 14.6466C12.4328 15.7422 10.8542 16.3485 9.21761 16.3485C7.58099 16.3485 6.0024 15.7422 4.7866 14.6466Z" fill="#68777F"/>
</svg>
