<svg width="16" height="16" viewBox="0 0 16 16" fill="none" xmlns="http://www.w3.org/2000/svg">
<path d="M7.86952 0.441406C3.78942 0.441406 0.478027 3.7528 0.478027 7.8329C0.478027 11.913 3.78942 15.2244 7.86952 15.2244H11.5653V13.7461H7.86952C4.66161 13.7461 1.95633 11.0408 1.95633 7.8329C1.95633 4.62499 4.66161 1.9197 7.86952 1.9197C11.0774 1.9197 13.7827 4.62499 13.7827 7.8329V8.88988C13.7827 9.47381 13.2579 10.0503 12.674 10.0503C12.0901 10.0503 11.5653 9.47381 11.5653 8.88988V7.8329C11.5653 5.79285 9.90957 4.13715 7.86952 4.13715C5.82947 4.13715 4.17377 5.79285 4.17377 7.8329C4.17377 9.87295 5.82947 11.5286 7.86952 11.5286C8.88955 11.5286 9.82088 11.1147 10.4861 10.4421C10.9666 11.0999 11.7944 11.5286 12.674 11.5286C14.1301 11.5286 15.261 10.346 15.261 8.88988V7.8329C15.261 3.7528 11.9496 0.441406 7.86952 0.441406ZM7.86952 10.0503C6.64253 10.0503 5.65207 9.05989 5.65207 7.8329C5.65207 6.60591 6.64253 5.61545 7.86952 5.61545C9.09651 5.61545 10.087 6.60591 10.087 7.8329C10.087 9.05989 9.09651 10.0503 7.86952 10.0503Z" fill="#68777F"/>
</svg>
