<svg width="18" height="18" viewBox="0 0 18 18" fill="none" xmlns="http://www.w3.org/2000/svg">
<path d="M8.86997 6.65254C8.28185 6.65254 7.71782 6.88617 7.30196 7.30203C6.8861 7.7179 6.65247 8.28193 6.65247 8.87004C6.65247 9.45816 6.8861 10.0222 7.30196 10.4381C7.71782 10.8539 8.28185 11.0875 8.86997 11.0875C9.45809 11.0875 10.0221 10.8539 10.438 10.4381C10.8538 10.0222 11.0875 9.45816 11.0875 8.87004C11.0875 8.28193 10.8538 7.7179 10.438 7.30203C10.0221 6.88617 9.45809 6.65254 8.86997 6.65254ZM8.86997 12.5659C7.88977 12.5659 6.94972 12.1765 6.25662 11.4834C5.56352 10.7903 5.17414 9.85024 5.17414 8.87004C5.17414 7.88985 5.56352 6.9498 6.25662 6.2567C6.94972 5.56359 7.88977 5.17421 8.86997 5.17421C9.85017 5.17421 10.7902 5.56359 11.4833 6.2567C12.1764 6.9498 12.5658 7.88985 12.5658 8.87004C12.5658 9.85024 12.1764 10.7903 11.4833 11.4834C10.7902 12.1765 9.85017 12.5659 8.86997 12.5659ZM8.86997 3.32629C5.17414 3.32629 2.01789 5.6251 0.739136 8.87004C2.01789 12.115 5.17414 14.4138 8.86997 14.4138C12.5658 14.4138 15.722 12.115 17.0008 8.87004C15.722 5.6251 12.5658 3.32629 8.86997 3.32629Z" fill="#68777F"/>
</svg>
