<svg width="18" height="18" viewBox="0 0 18 18" fill="none" xmlns="http://www.w3.org/2000/svg">
<path d="M8.80021 10.81C9.31481 10.81 9.80832 10.6056 10.1722 10.2417C10.5361 9.87784 10.7405 9.38432 10.7405 8.86973C10.7405 8.81291 10.7379 8.75661 10.733 8.701L8.63148 10.8026C8.68709 10.8074 8.74322 10.81 8.80021 10.81ZM15.2225 2.86807L14.4824 2.12869C14.4564 2.10272 14.4212 2.08813 14.3845 2.08813C14.3477 2.08813 14.3125 2.10272 14.2865 2.12869L12.3927 4.02305C11.3479 3.48913 10.1735 3.22217 8.86951 3.22217C5.53987 3.22217 3.05564 4.95629 1.41681 8.42451C1.35094 8.564 1.31677 8.71634 1.31677 8.8706C1.31677 9.02486 1.35094 9.1772 1.41681 9.31669C2.07165 10.696 2.86017 11.8016 3.78237 12.6333L1.94969 14.4653C1.92372 14.4913 1.90913 14.5265 1.90913 14.5633C1.90913 14.6 1.92372 14.6353 1.94969 14.6613L2.68924 15.4008C2.71523 15.4268 2.75047 15.4414 2.78721 15.4414C2.82395 15.4414 2.85919 15.4268 2.88517 15.4008L15.2225 3.06418C15.2354 3.05131 15.2456 3.03602 15.2526 3.0192C15.2596 3.00237 15.2631 2.98434 15.2631 2.96613C15.2631 2.94791 15.2596 2.92988 15.2526 2.91306C15.2456 2.89623 15.2354 2.88095 15.2225 2.86807ZM5.75122 8.86973C5.75118 8.3431 5.88754 7.82543 6.14702 7.36716C6.4065 6.90889 6.78026 6.52564 7.23188 6.25476C7.6835 5.98387 8.19759 5.83457 8.72406 5.82142C9.25052 5.80826 9.77143 5.9317 10.236 6.17969L9.39373 7.02198C9.05404 6.91321 8.69096 6.90011 8.34432 6.98412C7.99768 7.06812 7.68088 7.24599 7.42867 7.49819C7.17647 7.7504 6.9986 8.0672 6.9146 8.41384C6.83059 8.76048 6.84369 9.12356 6.95246 9.46325L6.11017 10.3055C5.87381 9.86391 5.75049 9.37063 5.75122 8.86973Z" fill="#68777F"/>
<path d="M16.3225 8.4228C15.7127 7.13853 14.9869 6.0913 14.145 5.28113L11.648 7.77836C11.8585 8.32858 11.9051 8.92799 11.7823 9.50417C11.6595 10.0803 11.3725 10.6086 10.9559 11.0252C10.5393 11.4418 10.0111 11.7288 9.43488 11.8516C8.85871 11.9744 8.2593 11.9278 7.70907 11.7173L5.59106 13.8353C6.57367 14.29 7.66657 14.5173 8.86977 14.5173C12.1994 14.5173 14.6836 12.7832 16.3225 9.31498C16.3884 9.1755 16.4225 9.02315 16.4225 8.86889C16.4225 8.71463 16.3884 8.56228 16.3225 8.4228Z" fill="#68777F"/>
</svg>
