<svg width="17" height="17" viewBox="0 0 17 17" fill="none" xmlns="http://www.w3.org/2000/svg">
<g clipPath="url(#clip0_1623_2321)">
<path d="M17.0001 8.5519C17.0001 3.82803 13.1942 -0.0012207 8.50005 -0.0012207C3.8038 -0.000158203 -0.0020752 3.82803 -0.0020752 8.55297C-0.0020752 12.821 3.1068 16.3592 7.1698 17.0009V11.0243H5.01293V8.55297H7.17193V6.66703C7.17193 4.52397 8.44161 3.34034 10.3828 3.34034C11.3136 3.34034 12.2857 3.50715 12.2857 3.50715V5.6109H11.2137C10.1586 5.6109 9.82924 6.27072 9.82924 6.94753V8.5519H12.1859L11.8097 11.0233H9.82818V16.9998C13.8912 16.3581 17.0001 12.82 17.0001 8.5519Z" fill="#699BF7"/>
</g>
<defs>
<clipPath id="clip0_1623_2321">
<rect width="17" height="17" fill="white"/>
</clipPath>
</defs>
</svg>
