<svg width="17" height="17" viewBox="0 0 17 17" fill="none" xmlns="http://www.w3.org/2000/svg">
<g clipPath="url(#clip0_1623_2253)">
<path d="M3.73005 6.91688C4.06146 5.91419 4.70107 5.04178 5.55763 4.42411C6.41418 3.80643 7.44393 3.47504 8.49996 3.47721C9.69705 3.47721 10.7794 3.90221 11.6294 4.59779L14.1029 2.125C12.5955 0.811042 10.6639 0 8.49996 0C5.14955 0 2.26521 1.91108 0.878296 4.71042L3.73005 6.91688Z" fill="#EA4335"/>
<path d="M11.3617 12.7593C10.5896 13.2572 9.60926 13.5229 8.50001 13.5229C7.44819 13.525 6.42233 13.1963 5.56768 12.5832C4.71303 11.97 4.07289 11.1036 3.73789 10.1066L0.876221 12.279C1.57835 13.7001 2.66495 14.8959 4.0126 15.7304C5.36024 16.5649 6.91491 17.0048 8.50001 17.0001C10.5776 17.0001 12.5623 16.2613 14.0491 14.8751L11.3624 12.7593H11.3617Z" fill="#34A853"/>
<path d="M14.049 14.8751C15.6038 13.4244 16.6131 11.2654 16.6131 8.50005C16.6131 7.99713 16.5359 7.45668 16.4205 6.95447H8.49988V10.239H13.0587C12.8342 11.3433 12.23 12.1983 11.3623 12.7593L14.049 14.8751Z" fill="#4A90E2"/>
<path d="M3.73796 10.1065C3.56467 9.58868 3.47663 9.04611 3.47729 8.50003C3.47729 7.94612 3.56583 7.41416 3.73017 6.91691L0.878416 4.71045C0.295017 5.88819 -0.00572329 7.18573 8.24886e-05 8.50003C8.24886e-05 9.86003 0.315291 11.1421 0.876291 12.279L3.73796 10.1065Z" fill="#FBBC05"/>
</g>
<defs>
<clipPath id="clip0_1623_2253">
<rect width="17" height="17" fill="white"/>
</clipPath>
</defs>
</svg>
