<svg width="66" height="91" viewBox="0 0 66 91" fill="none" xmlns="http://www.w3.org/2000/svg">
<path d="M49.5002 44.69C49.3352 44.6625 49.1427 44.6625 48.9777 44.69C45.1827 44.5525 42.1577 41.445 42.1577 37.595C42.1577 33.6625 45.3202 30.5 49.2527 30.5C53.1852 30.5 56.3477 33.69 56.3477 37.595C56.3202 41.445 53.2952 44.5525 49.5002 44.69Z" stroke="white" strokeWidth="3" strokeLinecap="round" strokeLinejoin="round"/>
<path d="M46.6675 64.7102C50.435 65.3427 54.5875 64.6827 57.5025 62.7302C61.38 60.1452 61.38 55.9102 57.5025 53.3252C54.56 51.3727 50.3525 50.7127 46.585 51.3727" stroke="white" strokeWidth="3" strokeLinecap="round" strokeLinejoin="round"/>
<path d="M16.4173 44.69C16.5823 44.6625 16.7748 44.6625 16.9398 44.69C20.7348 44.5525 23.7598 41.445 23.7598 37.595C23.7598 33.6625 20.5973 30.5 16.6648 30.5C12.7323 30.5 9.56982 33.69 9.56982 37.595C9.59732 41.445 12.6223 44.5525 16.4173 44.69Z" stroke="white" strokeWidth="3" strokeLinecap="round" strokeLinejoin="round"/>
<path d="M19.25 64.7102C15.4825 65.3427 11.33 64.6827 8.41496 62.7302C4.53746 60.1452 4.53746 55.9102 8.41496 53.3252C11.3575 51.3727 15.565 50.7127 19.3325 51.3727" stroke="white" strokeWidth="3" strokeLinecap="round" strokeLinejoin="round"/>
<path d="M32.9997 65.2325C32.8347 65.205 32.6422 65.205 32.4772 65.2325C28.6822 65.095 25.6572 61.9875 25.6572 58.1375C25.6572 54.205 28.8197 51.0425 32.7522 51.0425C36.6847 51.0425 39.8472 54.2325 39.8472 58.1375C39.8197 61.9875 36.7947 65.1225 32.9997 65.2325Z" stroke="white" strokeWidth="3" strokeLinecap="round" strokeLinejoin="round"/>
<path d="M24.9975 73.895C21.12 76.48 21.12 80.715 24.9975 83.3C29.3975 86.2425 36.6025 86.2425 41.0025 83.3C44.88 80.715 44.88 76.48 41.0025 73.895C36.63 70.98 29.3975 70.98 24.9975 73.895Z" stroke="white" strokeWidth="3" strokeLinecap="round" strokeLinejoin="round"/>
<path d="M29.2082 20.5834H28.6665C24.3332 20.5834 22.1665 19.5001 22.1665 14.0834V8.66675C22.1665 4.33341 24.3332 2.16675 28.6665 2.16675H37.3332C41.6665 2.16675 43.8332 4.33341 43.8332 8.66675V14.0834C43.8332 18.4167 41.6665 20.5834 37.3332 20.5834H36.7915C36.4557 20.5834 36.1307 20.7459 35.9248 21.0167L34.2998 23.1834C33.5848 24.1367 32.4148 24.1367 31.6998 23.1834L30.0748 21.0167C29.9015 20.7784 29.5007 20.5834 29.2082 20.5834Z" stroke="white" strokeWidth="2.5" strokeMiterlimit="10" strokeLinecap="round" strokeLinejoin="round"/>
<path d="M37.3297 11.9167H37.3394" stroke="white" strokeWidth="2.5" strokeLinecap="round" strokeLinejoin="round"/>
<path d="M32.9952 11.9167H33.0049" stroke="white" strokeWidth="2.5" strokeLinecap="round" strokeLinejoin="round"/>
<path d="M28.6607 11.9167H28.6704" stroke="white" strokeWidth="2.5" strokeLinecap="round" strokeLinejoin="round"/>
</svg>
