<svg width="18" height="18" viewBox="0 0 18 18" fill="none" xmlns="http://www.w3.org/2000/svg">
<path d="M13.305 5.91318H14.7833C14.9793 5.91318 15.1674 5.99106 15.306 6.12967C15.4446 6.26829 15.5225 6.4563 15.5225 6.65233V15.5221C15.5225 15.7182 15.4446 15.9062 15.306 16.0448C15.1674 16.1834 14.9793 16.2613 14.7833 16.2613H2.95692C2.76089 16.2613 2.57288 16.1834 2.43427 16.0448C2.29565 15.9062 2.21777 15.7182 2.21777 15.5221V6.65233C2.21777 6.4563 2.29565 6.26829 2.43427 6.12967C2.57288 5.99106 2.76089 5.91318 2.95692 5.91318H4.43522V5.17403C4.43522 3.99782 4.90247 2.86979 5.73417 2.03809C6.56588 1.20638 7.69391 0.739136 8.87012 0.739136C10.0463 0.739136 11.1744 1.20638 12.0061 2.03809C12.8378 2.86979 13.305 3.99782 13.305 5.17403V5.91318ZM11.8267 5.91318V5.17403C11.8267 4.38989 11.5152 3.63787 10.9607 3.0834C10.4063 2.52893 9.65426 2.21743 8.87012 2.21743C8.08598 2.21743 7.33396 2.52893 6.77949 3.0834C6.22502 3.63787 5.91352 4.38989 5.91352 5.17403V5.91318H11.8267ZM8.13097 10.3481V11.8264H9.60927V10.3481H8.13097ZM5.17437 10.3481V11.8264H6.65267V10.3481H5.17437ZM11.0876 10.3481V11.8264H12.5659V10.3481H11.0876Z" fill="#68777F"/>
</svg>
