<svg width="18" height="17" viewBox="0 0 18 17" fill="none" xmlns="http://www.w3.org/2000/svg">
<path d="M12 7.79163C13.245 7.79163 14.2425 6.84246 14.2425 5.66663C14.2425 4.49079 13.245 3.54163 12 3.54163C10.755 3.54163 9.75 4.49079 9.75 5.66663C9.75 6.84246 10.755 7.79163 12 7.79163ZM6 7.79163C7.245 7.79163 8.2425 6.84246 8.2425 5.66663C8.2425 4.49079 7.245 3.54163 6 3.54163C4.755 3.54163 3.75 4.49079 3.75 5.66663C3.75 6.84246 4.755 7.79163 6 7.79163ZM6 9.20829C4.2525 9.20829 0.75 10.037 0.75 11.6875V13.4583H11.25V11.6875C11.25 10.037 7.7475 9.20829 6 9.20829ZM12 9.20829C11.7825 9.20829 11.535 9.22246 11.2725 9.24371C12.1425 9.83871 12.75 10.6391 12.75 11.6875V13.4583H17.25V11.6875C17.25 10.037 13.7475 9.20829 12 9.20829Z" fill="#68777F"/>
</svg>
